<svg width="40" height="11" viewBox="0 0 40 11" fill="none" xmlns="http://www.w3.org/2000/svg">
<path d="M11.056 2.62723C10.696 2.62723 10.4 2.52323 10.168 2.31523C9.94403 2.09923 9.83203 1.83523 9.83203 1.52323C9.83203 1.20323 9.94403 0.939227 10.168 0.731227C10.4 0.515227 10.696 0.407227 11.056 0.407227C11.408 0.407227 11.696 0.515227 11.92 0.731227C12.152 0.939227 12.268 1.20323 12.268 1.52323C12.268 1.83523 12.152 2.09923 11.92 2.31523C11.696 2.52323 11.408 2.62723 11.056 2.62723ZM12.076 3.32323V10.0192H10.024V3.32323H12.076Z" fill="#6366F1"/>
<path d="M13.0453 5.79516C13.0453 4.96316 13.2253 4.22316 13.5853 3.57516C13.9453 2.91916 14.4453 2.41116 15.0853 2.05116C15.7333 1.68316 16.4654 1.49916 17.2814 1.49916C18.2814 1.49916 19.1374 1.76316 19.8494 2.29116C20.5614 2.81916 21.0374 3.53916 21.2774 4.45116H19.0214C18.8534 4.09916 18.6134 3.83116 18.3014 3.64716C17.9974 3.46316 17.6494 3.37116 17.2574 3.37116C16.6254 3.37116 16.1133 3.59116 15.7213 4.03116C15.3293 4.47116 15.1333 5.05916 15.1333 5.79516C15.1333 6.53116 15.3293 7.11916 15.7213 7.55916C16.1133 7.99916 16.6254 8.21916 17.2574 8.21916C17.6494 8.21916 17.9974 8.12716 18.3014 7.94316C18.6134 7.75916 18.8534 7.49116 19.0214 7.13916H21.2774C21.0374 8.05116 20.5614 8.77116 19.8494 9.29916C19.1374 9.81916 18.2814 10.0792 17.2814 10.0792C16.4654 10.0792 15.7333 9.89916 15.0853 9.53916C14.4453 9.17116 13.9453 8.66316 13.5853 8.01516C13.2253 7.36716 13.0453 6.62716 13.0453 5.79516Z" fill="#6366F1"/>
<path d="M26.6184 10.0192L24.8664 6.83916H24.3744V10.0192H22.3224V1.59516H25.7664C26.4304 1.59516 26.9944 1.71116 27.4584 1.94316C27.9304 2.17516 28.2824 2.49516 28.5144 2.90316C28.7464 3.30316 28.8624 3.75116 28.8624 4.24716C28.8624 4.80716 28.7024 5.30716 28.3824 5.74716C28.0704 6.18716 27.6064 6.49916 26.9904 6.68316L28.9344 10.0192H26.6184ZM24.3744 5.38716H25.6464C26.0224 5.38716 26.3024 5.29516 26.4864 5.11116C26.6784 4.92716 26.7744 4.66716 26.7744 4.33116C26.7744 4.01116 26.6784 3.75916 26.4864 3.57516C26.3024 3.39116 26.0224 3.29916 25.6464 3.29916H24.3744V5.38716Z" fill="#6366F1"/>
<path d="M39.4538 1.59516V10.0192H37.4018V4.96716L35.5178 10.0192H33.8618L31.9658 4.95516V10.0192H29.9138V1.59516H32.3378L34.7018 7.42716L37.0418 1.59516H39.4538Z" fill="#6366F1"/>
<rect x="0.351562" y="4.84082" width="5" height="5" transform="rotate(-45 0.351562 4.84082)" fill="#6366F1"/>
<rect x="0.351562" y="6.46484" width="5" height="5" transform="rotate(-45 0.351562 6.46484)" fill="#5759DB"/>
</svg>
